<svg width="40" height="41" viewBox="0 0 40 41" fill="none" xmlns="http://www.w3.org/2000/svg">
<path d="M38.5683 8.94876C37.2015 9.55596 35.7331 9.96436 34.1919 10.1488C35.7659 9.20596 36.9727 7.71356 37.5411 5.93396C36.0699 6.80676 34.4391 7.44076 32.7019 7.78356C31.3123 6.30236 29.3327 5.37676 27.1415 5.37676C22.2983 5.31196 18.5747 10.0436 19.7207 14.7308C13.3891 14.4136 7.77588 11.38 4.01668 6.76916C1.96508 10.1148 3.12988 14.8992 6.37508 16.9416C5.12668 16.9016 3.95108 16.5588 2.92428 15.9888C2.87668 19.7108 5.51709 22.8532 9.03588 23.5544C7.95468 23.856 6.70908 23.9032 5.59508 23.6856C6.56508 26.712 9.37868 28.916 12.7123 28.9772C9.69829 31.3856 5.47868 32.6412 1.43188 32.1324C17.7047 42.1472 35.6939 29.0264 34.7651 12.892C36.2543 11.8168 37.5471 10.4756 38.5683 8.94876Z" fill="#A3A3A3"/>
</svg>
