<svg width="40" height="41" viewBox="0 0 40 41" fill="none" xmlns="http://www.w3.org/2000/svg">
<path d="M19.9906 3.83337C16.6943 3.83337 13.472 4.81086 10.7311 6.64221C7.99033 8.47357 5.85412 11.0765 4.59266 14.122C3.3312 17.1674 3.00114 20.5185 3.64423 23.7515C4.28731 26.9846 5.87466 29.9543 8.20554 32.2852C10.5364 34.616 13.5061 36.2034 16.7391 36.8465C19.9722 37.4896 23.3233 37.1595 26.3687 35.898C29.4141 34.6366 32.0171 32.5004 33.8485 29.7595C35.6798 27.0187 36.6573 23.7964 36.6573 20.5C36.6575 18.3113 36.2265 16.1439 35.389 14.1218C34.5515 12.0996 33.3238 10.2622 31.7762 8.71452C30.2285 7.16684 28.3911 5.93919 26.3689 5.10168C24.3467 4.26416 22.1794 3.83319 19.9906 3.83337ZM25.2898 29.0875C25.2274 29.243 25.1325 29.3835 25.0114 29.4993C24.8904 29.6152 24.7459 29.7038 24.5878 29.7593C24.4296 29.8148 24.2614 29.8358 24.0945 29.821C23.9276 29.8062 23.7657 29.7558 23.6198 29.6733L19.0954 26.1577L16.1915 28.8367C16.1241 28.8865 16.0453 28.9185 15.9623 28.9299C15.8793 28.9412 15.7948 28.9315 15.7165 28.9016L16.2732 23.9208L16.291 23.935L16.3024 23.8366C16.3024 23.8366 24.444 16.4241 24.7757 16.1083C25.1115 15.7933 25.0007 15.725 25.0007 15.725C25.0198 15.3408 24.3982 15.725 24.3982 15.725L13.6106 22.665L9.11817 21.135C9.11817 21.135 8.42817 20.8875 8.36317 20.3434C8.29483 19.8034 9.14065 19.51 9.14065 19.51L27.0023 12.4142C27.0023 12.4142 28.4706 11.76 28.4706 12.8434L25.2898 29.0875Z" fill="#A3A3A3"/>
</svg>
